<svg width="117" height="16" viewBox="0 0 117 16" fill="none" xmlns="http://www.w3.org/2000/svg">
<g clip-path="url(#clip0_10_10)">
<path d="M16.539 6.09701C16.5218 6.0443 16.4903 5.99744 16.4478 5.96174C16.4054 5.92604 16.3539 5.90293 16.299 5.89501L10.939 5.11601L8.542 0.260011C8.51747 0.210713 8.47967 0.169235 8.43285 0.140241C8.38604 0.111247 8.33207 0.0958862 8.277 0.0958862C8.22193 0.0958862 8.16796 0.111247 8.12115 0.140241C8.07433 0.169235 8.03653 0.210713 8.012 0.260011L5.613 5.11701L0.253 5.89601C0.198449 5.90414 0.147239 5.9273 0.105108 5.96289C0.0629761 5.99848 0.0315873 6.0451 0.0144582 6.09753C-0.00267103 6.14995 -0.00486393 6.20611 0.00812514 6.25971C0.0211142 6.31332 0.0487721 6.36224 0.0880001 6.40101L3.968 10.181L3.051 15.521C3.042 15.5754 3.04832 15.6313 3.06927 15.6823C3.09022 15.7333 3.12496 15.7775 3.1696 15.8099C3.21424 15.8423 3.26701 15.8616 3.32201 15.8657C3.37701 15.8698 3.43206 15.8584 3.481 15.833L8.276 13.313L13.07 15.833C13.119 15.8589 13.1743 15.8706 13.2295 15.8667C13.2848 15.8627 13.3379 15.8433 13.3827 15.8107C13.4275 15.7781 13.4623 15.7336 13.483 15.6822C13.5037 15.6308 13.5096 15.5746 13.5 15.52L12.584 10.182L16.464 6.40001C16.544 6.32001 16.574 6.20301 16.539 6.09601V6.09701Z" fill="#EF9546"/>
</g>
<g clip-path="url(#clip1_10_10)">
<path d="M41.539 6.09701C41.5218 6.0443 41.4903 5.99744 41.4478 5.96174C41.4054 5.92604 41.3539 5.90293 41.299 5.89501L35.939 5.11601L33.542 0.260011C33.5175 0.210713 33.4797 0.169235 33.4329 0.140241C33.386 0.111247 33.3321 0.0958862 33.277 0.0958862C33.2219 0.0958862 33.168 0.111247 33.1211 0.140241C33.0743 0.169235 33.0365 0.210713 33.012 0.260011L30.613 5.11701L25.253 5.89601C25.1984 5.90414 25.1472 5.9273 25.1051 5.96289C25.063 5.99848 25.0316 6.0451 25.0145 6.09753C24.9973 6.14995 24.9951 6.20611 25.0081 6.25971C25.0211 6.31332 25.0488 6.36224 25.088 6.40101L28.968 10.181L28.051 15.521C28.042 15.5754 28.0483 15.6313 28.0693 15.6823C28.0902 15.7333 28.125 15.7775 28.1696 15.8099C28.2142 15.8423 28.267 15.8616 28.322 15.8657C28.377 15.8698 28.4321 15.8584 28.481 15.833L33.276 13.313L38.07 15.833C38.119 15.8589 38.1743 15.8706 38.2295 15.8667C38.2848 15.8627 38.3379 15.8433 38.3827 15.8107C38.4275 15.7781 38.4623 15.7336 38.483 15.6822C38.5037 15.6308 38.5096 15.5746 38.5 15.52L37.584 10.182L41.464 6.40001C41.544 6.32001 41.574 6.20301 41.539 6.09601V6.09701Z" fill="#EF9546"/>
</g>
<path d="M91.5392 6.00113C91.5221 5.94841 91.4905 5.90155 91.4481 5.86585C91.4057 5.83016 91.3541 5.80704 91.2992 5.79913L85.9392 5.02013L83.5422 0.164125C83.5177 0.114826 83.4799 0.0733484 83.4331 0.0443544C83.3863 0.0153604 83.3323 0 83.2772 0C83.2222 0 83.1682 0.0153604 83.1214 0.0443544C83.0746 0.0733484 83.0368 0.114826 83.0122 0.164125L80.6132 5.02113L75.2532 5.80013C75.1987 5.80825 75.1475 5.83141 75.1053 5.867C75.0632 5.90259 75.0318 5.94922 75.0147 6.00164C74.9976 6.05407 74.9954 6.11023 75.0084 6.16383C75.0213 6.21743 75.049 6.26636 75.0882 6.30513L78.9682 10.0851L78.0512 15.4251C78.0422 15.4795 78.0486 15.5354 78.0695 15.5864C78.0904 15.6374 78.1252 15.6816 78.1698 15.714C78.2145 15.7464 78.2672 15.7657 78.3222 15.7698C78.3772 15.7739 78.4323 15.7626 78.4812 15.7371L83.2762 13.2171L88.0702 15.7371C88.1192 15.7631 88.1745 15.7747 88.2298 15.7708C88.2851 15.7668 88.3381 15.7475 88.3829 15.7148C88.4277 15.6822 88.4625 15.6377 88.4832 15.5863C88.504 15.5349 88.5099 15.4787 88.5002 15.4241L87.5842 10.0861L91.4642 6.30413C91.5442 6.22413 91.5742 6.10713 91.5392 6.00013V6.00113Z" fill="#EF9546"/>
<path d="M116.539 6.00113C116.522 5.94841 116.49 5.90155 116.448 5.86585C116.406 5.83016 116.354 5.80704 116.299 5.79913L110.939 5.02013L108.542 0.164125C108.518 0.114826 108.48 0.0733484 108.433 0.0443544C108.386 0.0153604 108.332 0 108.277 0C108.222 0 108.168 0.0153604 108.121 0.0443544C108.075 0.0733484 108.037 0.114826 108.012 0.164125L105.613 5.02113L100.253 5.80013C100.199 5.80825 100.147 5.83141 100.105 5.867C100.063 5.90259 100.032 5.94922 100.015 6.00164C99.9976 6.05407 99.9954 6.11023 100.008 6.16383C100.021 6.21743 100.049 6.26636 100.088 6.30513L103.968 10.0851L103.051 15.4251C103.042 15.4795 103.049 15.5354 103.07 15.5864C103.09 15.6374 103.125 15.6816 103.17 15.714C103.214 15.7464 103.267 15.7657 103.322 15.7698C103.377 15.7739 103.432 15.7626 103.481 15.7371L108.276 13.2171L113.07 15.7371C113.119 15.7631 113.174 15.7747 113.23 15.7708C113.285 15.7668 113.338 15.7475 113.383 15.7148C113.428 15.6822 113.462 15.6377 113.483 15.5863C113.504 15.5349 113.51 15.4787 113.5 15.4241L112.584 10.0861L116.464 6.30413C116.544 6.22413 116.574 6.10713 116.539 6.00013V6.00113Z" fill="#EF9546"/>
<g clip-path="url(#clip2_10_10)">
<path d="M66.539 6.09701C66.5218 6.0443 66.4903 5.99744 66.4478 5.96174C66.4054 5.92604 66.3539 5.90293 66.299 5.89501L60.939 5.11601L58.542 0.260011C58.5175 0.210713 58.4797 0.169235 58.4329 0.140241C58.386 0.111247 58.3321 0.0958862 58.277 0.0958862C58.2219 0.0958862 58.168 0.111247 58.1211 0.140241C58.0743 0.169235 58.0365 0.210713 58.012 0.260011L55.613 5.11701L50.253 5.89601C50.1984 5.90414 50.1472 5.9273 50.1051 5.96289C50.063 5.99848 50.0316 6.0451 50.0145 6.09753C49.9973 6.14995 49.9951 6.20611 50.0081 6.25971C50.0211 6.31332 50.0488 6.36224 50.088 6.40101L53.968 10.181L53.051 15.521C53.042 15.5754 53.0483 15.6313 53.0693 15.6823C53.0902 15.7333 53.125 15.7775 53.1696 15.8099C53.2142 15.8423 53.267 15.8616 53.322 15.8657C53.377 15.8698 53.4321 15.8584 53.481 15.833L58.276 13.313L63.07 15.833C63.119 15.8589 63.1743 15.8706 63.2295 15.8667C63.2848 15.8627 63.3379 15.8433 63.3827 15.8107C63.4275 15.7781 63.4623 15.7336 63.483 15.6822C63.5037 15.6308 63.5096 15.5746 63.5 15.52L62.584 10.182L66.464 6.40001C66.544 6.32001 66.574 6.20301 66.539 6.09601V6.09701Z" fill="#EF9546"/>
</g>
<defs>
<clipPath id="clip0_10_10">
<rect width="17" height="16" fill="white"/>
</clipPath>
<clipPath id="clip1_10_10">
<rect width="17" height="16" fill="white" transform="translate(25)"/>
</clipPath>
<clipPath id="clip2_10_10">
<rect width="17" height="16" fill="white" transform="translate(50)"/>
</clipPath>
</defs>
</svg>
